<?xml version="1.0" encoding="UTF-8"?><!DOCTYPE svg PUBLIC "-//W3C//DTD SVG 1.1//EN" "http://www.w3.org/Graphics/SVG/1.1/DTD/svg11.dtd"><svg xmlns="http://www.w3.org/2000/svg" xmlns:xlink="http://www.w3.org/1999/xlink"><symbol id="android-logo" viewBox="0 0 43 47"><path fill="#A4C639" d="M34.886 14.062H8.114v19.133a3.553 3.553 0 0 0 .96 2.468 3.697 3.697 0 0 0 2.422 1.159v7.453c.044.737.374 1.43.922 1.936a2.986 2.986 0 0 0 2.026.789c.753 0 1.478-.282 2.026-.789a2.869 2.869 0 0 0 .922-1.936v-7.433h8.236v7.433c.045.737.375 1.43.922 1.936a2.985 2.985 0 0 0 2.026.789c.754 0 1.478-.282 2.026-.789a2.869 2.869 0 0 0 .922-1.936v-7.453a3.707 3.707 0 0 0 2.426-1.158c.63-.673.975-1.555.967-2.468V14.402l-.03-.34zM2.953 15.745c.78 0 1.53.304 2.081.845.552.54.862 1.275.862 2.04v12.402c.001.38-.074.756-.22 1.107a2.88 2.88 0 0 1-.638.94 2.947 2.947 0 0 1-.956.627 2.995 2.995 0 0 1-3.217-.627A2.866 2.866 0 0 1 0 31.032V18.63c0-.38.076-.756.225-1.107a2.9 2.9 0 0 1 1.599-1.562 2.995 2.995 0 0 1 1.13-.216zm37.104 0c.78 0 1.53.304 2.081.845.552.54.862 1.275.862 2.04v12.402a2.845 2.845 0 0 1-.858 2.047 2.947 2.947 0 0 1-.956.627 2.994 2.994 0 0 1-3.217-.627 2.867 2.867 0 0 1-.865-2.047V18.63c0-.38.076-.756.225-1.107.148-.35.366-.669.64-.937.275-.268.6-.48.959-.625a2.995 2.995 0 0 1 1.129-.216zM8.175 12.058h26.568a10.404 10.404 0 0 0-3.26-7.293L34.049.498a.307.307 0 0 0-.122-.461.322.322 0 0 0-.42.11l-2.42 4.157A16.708 16.708 0 0 0 21.458.898a16.977 16.977 0 0 0-9.575 3.406L9.504.187a.325.325 0 0 0-.184-.16.333.333 0 0 0-.246.01.315.315 0 0 0-.112.42l2.493 4.238a10.443 10.443 0 0 0-3.28 7.363zm17.699-5.21c0-.398.161-.78.449-1.062a1.55 1.55 0 0 1 2.167 0c.288.282.45.664.45 1.063 0 .398-.162.78-.45 1.062-.287.282-.677.44-1.084.44-.406 0-.796-.158-1.083-.44a1.488 1.488 0 0 1-.45-1.062zm-11.384 0c0-.398.162-.78.449-1.062a1.554 1.554 0 0 1 2.168 0c.287.282.449.664.449 1.063 0 .398-.162.78-.45 1.062-.287.282-.677.44-1.083.44-.407 0-.797-.158-1.084-.44a1.488 1.488 0 0 1-.449-1.062z"/></symbol><symbol id="apple-logo" viewBox="0 0 47 56"><path fill="#fff" d="M39.245 29.74a12.09 12.09 0 0 0 2.127 6.787A12.668 12.668 0 0 0 47 41.063a29.794 29.794 0 0 1-4 7.96c-2.401 3.413-4.905 6.816-8.844 6.904-3.938.09-5.088-2.219-9.526-2.219-4.437 0-5.8 2.15-9.465 2.288-3.663.139-6.686-3.718-9.088-7.111-4.956-6.905-8.752-19.639-3.664-28.2a13.925 13.925 0 0 1 5.024-5.037 14.489 14.489 0 0 1 6.935-1.977c3.724-.069 7.246 2.427 9.526 2.427 2.28 0 6.564-3.009 11.062-2.565a13.85 13.85 0 0 1 5.954 1.576 13.387 13.387 0 0 1 4.61 3.977c-.275.168-6.31 3.571-6.249 10.653h-.03zM31.978 8.936C34.16 6.46 35.238 3.247 34.981 0c-3.305.302-6.364 1.82-8.55 4.241-1.862 2.092-3.5 5.445-3.053 8.66 3.247.247 6.555-1.597 8.57-3.945"/></symbol><symbol id="bg-whiite-map" viewBox="0 0 1200 123">
<path d="M600.5 123L-119 0H1320L600.5 123Z" fill="white"/>
</symbol><symbol id="bg-white-map" viewBox="0 0 1200 123">
<path d="M600.5 123L-119 0H1320L600.5 123Z" fill="white"/>
</symbol><symbol id="contrast" viewBox="0 0 32 32"><g fill="#283645" opacity=".3"><path d="M16 4a12 12 0 110 24 12 12 0 010-24zm0-4a16 16 0 100 32 16 16 0 000-32zM16 24.29a8.52 8.52 0 000-17"/></g></symbol><symbol id="crop" viewBox="0 0 44 44"><path fill="#D22856" d="M32 28h4V12a4 4 0 0 0-4-4H16v4h16v16zm-20 4V0H8v8H0v4h8v20a4 4 0 0 0 4 4h20v8h4v-8h8v-4H12z"/></symbol><symbol id="facebook" viewBox="0 0 9 18">
<path d="M6.50865 3.19324H9V0H6.02076C2.76125 0.171067 1.59862 2.27138 2.07612 5.81626H0V9.15206H2.07612V18H6.02076V9.15206H8.97924V5.81626H6.01038C5.98962 4.81837 5.96886 3.52587 6.50865 3.19324Z" fill="#D22856"/>
</symbol><symbol id="fill" viewBox="0 0 48 43"><g fill="#283645" opacity=".3"><path d="M33.12 17.88L15.24 0l-2.83 2.83 4.76 4.76L6.88 17.88a3 3 0 000 4.24l11 11a3 3 0 004.24 0l11-11a3 3 0 000-4.24zM10.41 20L20 10.42 29.59 20H10.41zM38 23s-4 4.33-4 7a4 4 0 108 0c0-2.67-4-7-4-7zM48 40H0v3h48v-3z"/></g></symbol><symbol id="glasses-logo" viewBox="0 0 59 40"><path fill="#D22856" fill-rule="evenodd" d="M53.892 6.586l5.038 21.145a1.418 1.418 0 0 1-.22 1.297 1.356 1.356 0 0 1-1.183.535H53.52c-.69 5.812-5.57 10.315-11.489 10.315-5.917 0-10.798-4.503-11.488-10.314h-1.965C27.887 35.442 22.953 40 16.968 40c-5.994 0-10.934-4.573-11.612-10.466H1.45a1.364 1.364 0 0 1-1.154-.536 1.418 1.418 0 0 1-.24-1.267l5.05-21.145C5.455 4.26 7.639 0 13.486 0c.388 0 .76.157 1.034.435a1.5 1.5 0 0 1 0 2.101 1.45 1.45 0 0 1-1.034.435c-4.707 0-5.438 3.694-5.497 4.1L3.341 26.602h2.034c.746-5.817 5.652-10.31 11.593-10.31 5.939 0 10.843 4.488 11.593 10.3l1.998.01c.745-5.75 5.598-10.189 11.473-10.189 5.886 0 10.746 4.456 11.477 10.222v-.053h2.137l-4.639-19.51c-.068-.407-.77-4.1-5.497-4.1a1.45 1.45 0 0 1-1.033-.436 1.498 1.498 0 0 1-.428-1.05c0-.394.154-.772.428-1.05A1.45 1.45 0 0 1 45.51 0c5.848 0 8.03 4.259 8.382 6.586zm-28.22 22.977a9.122 9.122 0 0 0-.022-2.97c-.725-4.195-4.336-7.383-8.681-7.383-4.349 0-7.961 3.192-8.683 7.391a9.114 9.114 0 0 0-.025 2.94c.66 4.273 4.308 7.541 8.707 7.541 4.392 0 8.034-3.257 8.704-7.518zm24.942 0c.073-.461.112-.934.112-1.417 0-4.868-3.893-8.815-8.694-8.815-4.802 0-8.695 3.947-8.695 8.815 0 .482.039.956.112 1.418.669 4.194 4.257 7.397 8.583 7.397 4.325 0 7.913-3.203 8.582-7.397z" clip-rule="evenodd"/></symbol><symbol id="grey-background-2" viewBox="0 0 320 506">
<path d="M-450 70.7692L764 0V506H-450V70.7692Z" fill="#F2F2F2"/>
</symbol><symbol id="grey-background" viewBox="0 0 1200 715">
<path d="M0 100L1200 0V715H0V100Z" fill="#F2F2F2"/>
</symbol><symbol id="heart" viewBox="0 0 13 12">
<path d="M6.46867 12C6.3589 12.0014 6.25012 11.9798 6.14988 11.9367C6.04963 11.8935 5.96033 11.8298 5.88815 11.75C1.95926 7.42 1.03665 6.44 0.860416 6.17C0.307088 5.49497 0.00416162 4.66056 0 3.8C0.00441359 3.07425 0.223059 2.36473 0.63034 1.7545C1.03762 1.14428 1.61668 0.658598 2.29973 0.354328C2.98278 0.0500576 3.74155 -0.0602132 4.48721 0.036425C5.23287 0.133063 5.93456 0.432611 6.51014 0.9C7.22774 0.319491 8.13412 0.00090711 9.07066 0C10.1136 0.00264761 11.1129 0.404172 11.8494 1.11652C12.5859 1.82888 12.9995 2.79391 12.9995 3.8C13.014 4.67715 12.6845 5.5272 12.0769 6.18L7.03883 11.74C6.9678 11.8185 6.88016 11.8814 6.78182 11.9246C6.68348 11.9677 6.5767 11.99 6.46867 11.99V12ZM2.07329 5.28C2.29099 5.54 4.63381 8.12 6.46867 10.14L10.947 5.2C11.3073 4.81798 11.5005 4.3163 11.486 3.8C11.486 3.18205 11.2316 2.5894 10.7786 2.15244C10.3256 1.71548 9.71126 1.47 9.07066 1.47C8.69007 1.47297 8.31512 1.55909 7.97398 1.7219C7.63285 1.8847 7.33439 2.11996 7.10103 2.41C7.02566 2.49603 6.9321 2.56553 6.82661 2.61382C6.72113 2.66211 6.60615 2.68809 6.48941 2.69C6.37337 2.68847 6.25936 2.6605 6.15667 2.60836C6.05398 2.55622 5.96552 2.4814 5.89852 2.39C5.66784 2.10104 5.37087 1.86758 5.03093 1.70796C4.69099 1.54833 4.31732 1.46688 3.93926 1.47C3.48505 1.47534 3.04153 1.6036 2.65919 1.84016C2.27684 2.07673 1.97103 2.41211 1.77658 2.8081C1.58213 3.2041 1.50684 3.64481 1.5593 4.08006C1.61176 4.51531 1.78985 4.9276 2.07329 5.27V5.28Z" fill="#D22856"/>
</symbol><symbol id="html_academy" viewBox="0 0 27 34">
<path d="M13.6426 0.0157537L13.5 0L0 1.40733V26.0129L13.5 34L27 26.0129V1.40733L13.6426 0.0157537ZM25.2344 25.0151L13.5 31.9573L1.76561 25.0151V14.9293L13.4507 21.8451L13.4701 23.0984L5.45351 18.3548L5.44295 19.5801L13.4894 24.3885L13.5088 25.675L5.46408 20.9174L5.45351 22.1427L13.5 26.9511L21.6239 22.1182V20.8929V16.909L25.2432 14.7595L25.2344 25.0151ZM25.2344 13.4519L22.0147 15.3319L20.5325 16.2071L13.4666 12.0201L13.456 13.2454L19.4957 16.818L19.4429 16.8495L19.3126 16.9247L18.4536 17.4166L13.4666 14.4689L13.456 15.6942L17.3921 18.0222L16.4591 18.6314L16.438 18.6436L13.4666 16.902L13.456 18.1273L15.4029 19.2615L13.4155 20.4483L1.7973 13.5762L13.4349 6.61831L25.2344 13.4519ZM25.2344 12.2266L13.4401 5.31075L1.76561 12.2196V2.9897L13.5 1.76442L25.2344 2.9897V12.2266Z" fill="#D22856"/>
</symbol><symbol id="left-arrow" viewBox="0 0 22 41">
<path opacity="0.3" d="M2.0413 20.5035L21.7483 1.4144C21.8281 1.3379 21.8914 1.24683 21.9346 1.14646C21.9778 1.04608 22 0.938398 22 0.829635C22 0.720871 21.9778 0.613187 21.9346 0.512814C21.8914 0.41244 21.8281 0.321369 21.7483 0.24487C21.6686 0.167255 21.5738 0.105671 21.4694 0.0636507C21.365 0.0216304 21.2532 0 21.1401 0C21.0271 0 20.9153 0.0216304 20.8109 0.0636507C20.7065 0.105671 20.6117 0.167255 20.532 0.24487L0.252535 19.9088C0.17249 19.9862 0.108978 20.0781 0.0656429 20.1793C0.0223074 20.2805 0 20.389 0 20.4985C0 20.6081 0.0223074 20.7166 0.0656429 20.8178C0.108978 20.919 0.17249 21.0109 0.252535 21.0883L20.532 40.7621C20.6967 40.9157 20.9167 41.001 21.1453 41C21.3139 40.9985 21.4783 40.9488 21.6181 40.8572C21.7578 40.7656 21.8666 40.6362 21.9309 40.485C21.9952 40.3339 22.0122 40.1677 21.9797 40.0072C21.9473 39.8467 21.8668 39.6991 21.7483 39.5827L2.0413 20.5035Z" fill="#283645"/>
</symbol><symbol id="logo-academy" viewBox="0 0 27 34"><path fill="#D22856" d="M13.643.016L13.5 0 0 1.407v24.606L13.5 34 27 26.013V1.407L13.643.016zm11.591 25L13.5 31.956 1.766 25.015V14.93l11.685 6.916.02 1.253-8.017-4.743-.011 1.225 8.046 4.809.02 1.286-8.045-4.758-.01 1.226L13.5 26.95l8.124-4.833V16.91l3.62-2.15-.01 10.256zm0-11.564l-3.22 1.88-1.482.875-7.065-4.187-.011 1.225 6.04 3.573-.053.031-.13.076-.86.492-4.986-2.948-.011 1.225 3.936 2.328-.933.61-.021.012-2.971-1.742-.011 1.225 1.947 1.135-1.988 1.186-11.618-6.872 11.638-6.958 11.8 6.834zm0-1.225L13.44 5.31 1.766 12.22V2.99L13.5 1.764 25.234 2.99v9.237z"/></symbol><symbol id="logo-desktop" viewBox="0 0 147 40">
<path d="M72.1933 18.4249C72.1932 18.0921 72.3255 17.7726 72.562 17.5345C72.7985 17.2965 73.1204 17.1589 73.4588 17.1511H80.6703C85.7826 17.1511 89.1473 19.827 89.1473 24.211V24.2703C89.1473 29.069 85.0695 31.5573 80.2484 31.5573H74.7544V38.2913C74.7702 38.466 74.7488 38.6421 74.6916 38.8082C74.6344 38.9743 74.5426 39.1269 74.4222 39.2563C74.3017 39.3856 74.1552 39.489 73.992 39.5596C73.8287 39.6303 73.6522 39.6668 73.4738 39.6668C73.2954 39.6668 73.119 39.6303 72.9557 39.5596C72.7925 39.489 72.6459 39.3856 72.5255 39.2563C72.405 39.1269 72.3133 38.9743 72.2561 38.8082C72.1989 38.6421 72.1775 38.466 72.1933 38.2913V18.4249ZM80.3489 29.2863C84.0952 29.2863 86.556 27.3115 86.556 24.3493V24.29C86.556 21.1106 84.1354 19.4616 80.5297 19.4616H74.8047V29.2468L80.3489 29.2863Z" fill="white"/>
<path d="M94.0186 18.2669C94.0028 18.0922 94.0242 17.9162 94.0814 17.7501C94.1386 17.5839 94.2304 17.4313 94.3508 17.302C94.4713 17.1726 94.6178 17.0693 94.781 16.9986C94.9443 16.9279 95.1208 16.8914 95.2992 16.8914C95.4776 16.8914 95.654 16.9279 95.8173 16.9986C95.9806 17.0693 96.1271 17.1726 96.2475 17.302C96.368 17.4313 96.4597 17.5839 96.5169 17.7501C96.5741 17.9162 96.5955 18.0922 96.5798 18.2669V38.2913C96.5955 38.466 96.5741 38.642 96.5169 38.8082C96.4597 38.9743 96.368 39.1269 96.2475 39.2563C96.1271 39.3856 95.9806 39.489 95.8173 39.5596C95.654 39.6303 95.4776 39.6668 95.2992 39.6668C95.1208 39.6668 94.9443 39.6303 94.781 39.5596C94.6178 39.489 94.4713 39.3856 94.3508 39.2563C94.2304 39.1269 94.1386 38.9743 94.0814 38.8082C94.0242 38.642 94.0028 38.466 94.0186 38.2913V18.2669Z" fill="white"/>
<path d="M103.199 18.2965C103.206 17.9699 103.343 17.6588 103.579 17.4287C103.815 17.1986 104.132 17.0673 104.464 17.0623H104.816C105.077 17.0675 105.332 17.1372 105.559 17.2649C105.785 17.3925 105.975 17.5741 106.111 17.7929L119.862 35.0231V18.2373C119.862 17.9125 119.993 17.6011 120.226 17.3715C120.46 17.1419 120.777 17.0129 121.107 17.0129C121.437 17.0129 121.754 17.1419 121.988 17.3715C122.221 17.6011 122.352 17.9125 122.352 18.2373V38.3308C122.358 38.4836 122.332 38.6359 122.275 38.7784C122.219 38.9209 122.134 39.0506 122.025 39.1596C121.916 39.2687 121.785 39.3547 121.641 39.4125C121.497 39.4704 121.343 39.4987 121.187 39.496H121.057C120.79 39.4779 120.531 39.3989 120.301 39.2652C120.071 39.1314 119.876 38.9468 119.731 38.7258L105.67 21.0908V38.3308C105.667 38.6491 105.541 38.9544 105.317 39.184C105.093 39.4135 104.788 39.5499 104.464 39.5651C104.136 39.5599 103.823 39.4272 103.593 39.1961C103.363 38.9649 103.236 38.6539 103.239 38.3308V18.2965H103.199Z" fill="white"/>
<path d="M128.74 18.2669C128.724 18.0922 128.746 17.9162 128.803 17.7501C128.86 17.5839 128.952 17.4313 129.072 17.302C129.193 17.1726 129.339 17.0693 129.503 16.9986C129.666 16.9279 129.842 16.8914 130.021 16.8914C130.199 16.8914 130.376 16.9279 130.539 16.9986C130.702 17.0693 130.849 17.1726 130.969 17.302C131.09 17.4313 131.181 17.5839 131.239 17.7501C131.296 17.9162 131.317 18.0922 131.301 18.2669V30.4415L144.198 17.4375C144.462 17.1684 144.822 17.0094 145.202 16.9931C145.531 17.0057 145.842 17.1418 146.072 17.3732C146.302 17.6046 146.433 17.9139 146.438 18.2373C146.43 18.4054 146.39 18.5706 146.317 18.7231C146.245 18.8756 146.142 19.0125 146.016 19.1259L137.981 26.9461L146.648 37.3731C146.875 37.631 147 37.9604 147 38.3012C146.996 38.472 146.958 38.6402 146.887 38.7964C146.817 38.9525 146.716 39.0934 146.59 39.2109C146.464 39.3284 146.315 39.4202 146.153 39.481C145.991 39.5418 145.818 39.5703 145.644 39.5651C145.442 39.557 145.245 39.5006 145.07 39.4008C144.895 39.3011 144.747 39.1609 144.64 38.9924L136.183 28.6346L131.301 33.4333V38.2716C131.301 38.4363 131.268 38.5993 131.204 38.7515C131.14 38.9036 131.046 39.0419 130.928 39.1583C130.809 39.2747 130.669 39.3671 130.514 39.4301C130.359 39.4932 130.193 39.5256 130.026 39.5256C129.858 39.5256 129.692 39.4932 129.538 39.4301C129.383 39.3671 129.242 39.2747 129.124 39.1583C129.005 39.0419 128.911 38.9036 128.847 38.7515C128.783 38.5993 128.75 38.4363 128.75 38.2716V18.2669H128.74Z" fill="white"/>
<path d="M98.9401 9.74563C97.9749 9.74563 97.0491 9.36936 96.3656 8.69932C95.6822 8.02927 95.2969 7.12014 95.2942 6.17125C95.2942 7.11923 94.9111 8.02839 94.2293 8.69872C93.5474 9.36905 92.6226 9.74563 91.6583 9.74563C92.6235 9.74825 93.5483 10.127 94.2299 10.7989C94.9115 11.4708 95.2942 12.381 95.2942 13.3299C95.2969 12.3801 95.6818 11.4699 96.365 10.7983C97.0482 10.1267 97.974 9.74824 98.9401 9.74563Z" fill="#D22856"/>
<path d="M43.287 19.0667C43.5381 19.0667 43.7792 19.0667 44.0202 19.0667C43.8019 18.6988 43.4897 18.3933 43.1145 18.1803C42.7393 17.9673 42.3141 17.8542 41.8809 17.8522C41.4627 17.8519 41.055 17.7233 40.7147 17.4843C40.3745 17.2454 40.1185 16.908 39.9826 16.5192C39.2588 16.7245 38.5561 16.9955 37.8834 17.3289H38.0743C38.607 17.3289 39.118 17.5369 39.4947 17.9073C39.8714 18.2776 40.083 18.7799 40.083 19.3037C40.088 19.399 40.088 19.4946 40.083 19.59C41.109 19.2225 42.1953 19.0451 43.287 19.0667Z" fill="white"/>
<path d="M60.7332 27.6472L55.5406 6.56621C55.179 4.24582 52.9291 0 46.9028 0C46.5033 0 46.1201 0.156044 45.8375 0.433804C45.555 0.711564 45.3962 1.08829 45.3962 1.4811C45.3962 1.87391 45.555 2.25063 45.8375 2.52839C46.1201 2.80615 46.5033 2.9622 46.9028 2.9622C51.7741 2.9622 52.4973 6.6452 52.5676 7.05003L57.3484 26.5018H55.2493C55.0321 24.805 54.4439 23.1744 53.525 21.7222C52.6061 20.2701 51.3783 19.0307 49.926 18.0892C49.4712 18.2774 49.0829 18.5932 48.8096 18.9971C48.5363 19.401 48.3901 19.8751 48.3893 20.3602C48.3948 20.4457 48.3948 20.5314 48.3893 20.6169C49.6107 21.4404 50.6131 22.5401 51.3122 23.8236C52.0113 25.1072 52.3867 26.537 52.4069 27.9928C52.4008 28.4894 52.3538 28.9847 52.2663 29.4739C51.9375 31.5714 50.8559 33.484 49.2173 34.8657C47.5786 36.2474 45.4911 37.007 43.3322 37.007C41.1734 37.007 39.0859 36.2474 37.4472 34.8657C35.8086 33.484 34.727 31.5714 34.3982 29.4739C34.3107 28.9847 34.2636 28.4894 34.2576 27.9928C34.2733 26.6229 34.5993 25.2737 35.2118 24.0432C34.7037 24.0081 34.2282 23.7847 33.8814 23.4181C33.5346 23.0515 33.3424 22.569 33.3436 22.0684C33.3453 21.889 33.277 21.7159 33.1528 21.5846C32.181 23.0752 31.5662 24.7633 31.3549 26.5215H29.4868C29.1663 23.6174 27.7658 20.9319 25.5542 18.9809C23.3427 17.0298 20.4759 15.9507 17.5044 15.9507C14.5329 15.9507 11.6662 17.0298 9.45463 18.9809C7.24307 20.9319 5.84259 23.6174 5.5221 26.5215H3.44302L8.23394 7.05003C8.29421 6.6452 9.0475 2.9622 13.8987 2.9622C14.2983 2.9622 14.6815 2.80615 14.964 2.52839C15.2465 2.25063 15.4053 1.87391 15.4053 1.4811C15.4053 1.08829 15.2465 0.711564 14.964 0.433804C14.6815 0.156044 14.2983 0 13.8987 0C7.87236 0 5.62254 4.24582 5.26096 6.56621L0.0582358 27.6472C-0.00612168 27.8617 -0.0173251 28.0883 0.0255611 28.308C0.0684473 28.5277 0.164178 28.7341 0.304759 28.91C0.44534 29.0859 0.62669 29.2262 0.833664 29.3191C1.04064 29.4121 1.26723 29.455 1.49451 29.4443H5.51206C5.59378 30.055 5.72135 30.659 5.89372 31.2512C5.95717 31.1429 5.99172 31.0206 5.99416 30.8957C5.99416 30.372 6.2058 29.8697 6.58252 29.4993C6.95923 29.129 7.47017 28.9209 8.00293 28.9209C8.16603 28.9231 8.32812 28.9463 8.48504 28.99C8.44128 28.6461 8.41781 28.2999 8.41473 27.9533C8.41742 27.4569 8.46109 26.9616 8.5453 26.4722C8.86708 24.3679 9.94627 22.4469 11.5867 21.0586C13.2271 19.6702 15.3198 18.9066 17.4843 18.9066C19.6489 18.9066 21.7416 19.6702 23.382 21.0586C25.0224 22.4469 26.1016 24.3679 26.4234 26.4722C26.5076 26.9616 26.5513 27.4569 26.554 27.9533C26.5382 30.3054 25.5807 32.5567 23.8889 34.2199C22.1971 35.8831 19.907 36.8243 17.5145 36.8399C15.5563 36.8663 13.6424 36.2668 12.0607 35.1317C11.6982 35.4412 11.235 35.6128 10.755 35.6155C10.5569 35.6181 10.3679 35.6973 10.2288 35.8359C10.0897 35.9745 10.0117 36.1613 10.0117 36.356C10.009 36.6321 9.94739 36.9046 9.83092 37.1558C11.9797 38.9066 14.6835 39.8636 17.4743 39.8613C20.4223 39.8738 23.2728 38.8236 25.4864 36.9095C27.7 34.9953 29.1232 32.35 29.4868 29.4739H31.3147C31.6456 32.3691 33.0499 35.0431 35.2593 36.9848C37.4688 38.9266 40.3285 40 43.2921 40C46.2557 40 49.1154 38.9266 51.3248 36.9848C53.5343 35.0431 54.9385 32.3691 55.2694 29.4739H59.2869C59.5191 29.4904 59.7519 29.4503 59.9647 29.3573C60.1774 29.2642 60.3635 29.121 60.5065 28.9404C60.6495 28.7598 60.7451 28.5473 60.7846 28.3217C60.8241 28.0961 60.8065 27.8645 60.7332 27.6472Z" fill="white"/>
<path d="M50.9203 15.9169C50.3273 15.9182 49.7398 15.8045 49.1915 15.5822C48.6432 15.36 48.1448 15.0337 47.725 14.6219C47.3052 14.21 46.9721 13.7209 46.7448 13.1823C46.5176 12.6438 46.4006 12.0665 46.4006 11.4835C46.3979 12.6602 45.9206 13.7878 45.0733 14.619C44.2259 15.4501 43.0778 15.9169 41.8809 15.9169C43.0788 15.9195 44.2268 16.3885 45.0739 17.2212C45.9209 18.0539 46.3979 19.1825 46.4006 20.3602C46.4006 19.1817 46.8768 18.0516 47.7244 17.2183C48.572 16.385 49.7216 15.9169 50.9203 15.9169Z" fill="#D22856"/>
<path d="M38.0743 19.3826C37.3417 19.3826 36.6392 19.0966 36.1212 18.5873C35.6032 18.0781 35.3122 17.3875 35.3122 16.6673C35.3122 17.3857 35.0226 18.0749 34.5068 18.5839C33.9909 19.0928 33.291 19.38 32.5602 19.3826C33.2901 19.3826 33.99 19.6677 34.5062 20.1751C35.0223 20.6824 35.3122 21.3706 35.3122 22.0881C35.3149 21.3697 35.607 20.6816 36.1247 20.1745C36.6424 19.6674 37.3435 19.3826 38.0743 19.3826Z" fill="#D22856"/>
<path d="M10.7851 33.6407C10.0561 33.6355 9.35868 33.3471 8.84503 32.8384C8.33138 32.3298 8.04314 31.6421 8.04316 30.9253C8.04316 31.6438 7.75354 32.333 7.23772 32.8419C6.7219 33.3508 6.02194 33.6381 5.29114 33.6407C6.02194 33.6433 6.7219 33.9305 7.23772 34.4395C7.75354 34.9484 8.04316 35.6376 8.04316 36.356C8.04314 35.6393 8.33138 34.9516 8.84503 34.4429C9.35868 33.9343 10.0561 33.6459 10.7851 33.6407Z" fill="#D22856"/>
</symbol><symbol id="logo-footer-desktop" viewBox="0 0 147 40">
<path d="M72.1933 18.4251C72.1932 18.0924 72.3255 17.7728 72.562 17.5348C72.7985 17.2967 73.1204 17.1591 73.4588 17.1514H80.6703C85.7826 17.1514 89.1473 19.8272 89.1473 24.2113V24.2705C89.1473 29.0693 85.0695 31.5575 80.2484 31.5575H74.7544V38.2916C74.7702 38.4663 74.7488 38.6423 74.6916 38.8084C74.6344 38.9745 74.5426 39.1271 74.4222 39.2565C74.3017 39.3859 74.1552 39.4892 73.992 39.5599C73.8287 39.6306 73.6522 39.6671 73.4738 39.6671C73.2954 39.6671 73.119 39.6306 72.9557 39.5599C72.7925 39.4892 72.6459 39.3859 72.5255 39.2565C72.405 39.1271 72.3133 38.9745 72.2561 38.8084C72.1989 38.6423 72.1775 38.4663 72.1933 38.2916V18.4251ZM80.3489 29.2865C84.0952 29.2865 86.556 27.3117 86.556 24.3495V24.2903C86.556 21.1108 84.1354 19.4619 80.5297 19.4619H74.8047V29.247L80.3489 29.2865Z" fill="#283645"/>
<path d="M94.0186 18.2671C94.0028 18.0924 94.0242 17.9164 94.0814 17.7502C94.1386 17.5841 94.2304 17.4315 94.3508 17.3021C94.4713 17.1728 94.6178 17.0695 94.781 16.9988C94.9443 16.9281 95.1208 16.8916 95.2992 16.8916C95.4776 16.8916 95.654 16.9281 95.8173 16.9988C95.9806 17.0695 96.1271 17.1728 96.2475 17.3021C96.368 17.4315 96.4597 17.5841 96.5169 17.7502C96.5741 17.9164 96.5955 18.0924 96.5798 18.2671V38.2915C96.5955 38.4662 96.5741 38.6422 96.5169 38.8084C96.4597 38.9745 96.368 39.1271 96.2475 39.2565C96.1271 39.3858 95.9806 39.4891 95.8173 39.5598C95.654 39.6305 95.4776 39.667 95.2992 39.667C95.1208 39.667 94.9443 39.6305 94.781 39.5598C94.6178 39.4891 94.4713 39.3858 94.3508 39.2565C94.2304 39.1271 94.1386 38.9745 94.0814 38.8084C94.0242 38.6422 94.0028 38.4662 94.0186 38.2915V18.2671Z" fill="#283645"/>
<path d="M103.199 18.2963C103.206 17.9697 103.343 17.6587 103.579 17.4285C103.815 17.1984 104.132 17.0671 104.464 17.0621H104.816C105.077 17.0673 105.332 17.137 105.559 17.2647C105.785 17.3923 105.975 17.5739 106.111 17.7927L119.862 35.0229V18.2371C119.862 17.9123 119.993 17.6009 120.226 17.3713C120.46 17.1417 120.777 17.0127 121.107 17.0127C121.437 17.0127 121.754 17.1417 121.988 17.3713C122.221 17.6009 122.352 17.9123 122.352 18.2371V38.3306C122.358 38.4834 122.332 38.6357 122.275 38.7782C122.219 38.9207 122.134 39.0504 122.025 39.1594C121.916 39.2685 121.785 39.3545 121.641 39.4123C121.497 39.4702 121.343 39.4986 121.187 39.4958H121.057C120.79 39.4777 120.531 39.3987 120.301 39.265C120.071 39.1313 119.876 38.9466 119.731 38.7256L105.67 21.0907V38.3306C105.667 38.6489 105.541 38.9542 105.317 39.1838C105.093 39.4134 104.788 39.5498 104.464 39.5649C104.136 39.5597 103.823 39.4271 103.593 39.1959C103.363 38.9647 103.236 38.6537 103.239 38.3306V18.2963H103.199Z" fill="#283645"/>
<path d="M128.74 18.2671C128.724 18.0924 128.746 17.9164 128.803 17.7502C128.86 17.5841 128.952 17.4315 129.072 17.3021C129.193 17.1728 129.339 17.0695 129.503 16.9988C129.666 16.9281 129.842 16.8916 130.021 16.8916C130.199 16.8916 130.376 16.9281 130.539 16.9988C130.702 17.0695 130.849 17.1728 130.969 17.3021C131.09 17.4315 131.181 17.5841 131.239 17.7502C131.296 17.9164 131.317 18.0924 131.301 18.2671V30.4417L144.198 17.4377C144.462 17.1686 144.822 17.0095 145.202 16.9933C145.531 17.0059 145.842 17.1419 146.072 17.3734C146.302 17.6048 146.433 17.9141 146.438 18.2375C146.43 18.4056 146.39 18.5708 146.317 18.7233C146.245 18.8758 146.142 19.0127 146.016 19.1261L137.981 26.9463L146.648 37.3733C146.875 37.6312 147 37.9606 147 38.3014C146.996 38.4721 146.958 38.6404 146.887 38.7965C146.817 38.9527 146.716 39.0936 146.59 39.2111C146.464 39.3286 146.315 39.4203 146.153 39.4811C145.991 39.5419 145.818 39.5705 145.644 39.5653C145.441 39.5598 145.243 39.5045 145.068 39.4045C144.892 39.3044 144.745 39.1629 144.64 38.9926L136.193 28.6348L131.301 33.4335V38.2718C131.301 38.4365 131.268 38.5995 131.204 38.7517C131.14 38.9038 131.046 39.0421 130.928 39.1585C130.809 39.2749 130.669 39.3673 130.514 39.4303C130.359 39.4933 130.193 39.5258 130.026 39.5258C129.858 39.5258 129.692 39.4933 129.538 39.4303C129.383 39.3673 129.242 39.2749 129.124 39.1585C129.005 39.0421 128.911 38.9038 128.847 38.7517C128.783 38.5995 128.75 38.4365 128.75 38.2718V18.2671H128.74Z" fill="#283645"/>
<path d="M98.9401 9.74577C97.9749 9.74578 97.0491 9.36951 96.3656 8.69946C95.6822 8.02942 95.2969 7.12028 95.2942 6.17139C95.2942 7.11937 94.9111 8.02853 94.2293 8.69886C93.5474 9.36919 92.6226 9.74577 91.6583 9.74577C92.6235 9.74839 93.5483 10.1272 94.2299 10.7991C94.9115 11.471 95.2942 12.3811 95.2942 13.33C95.2969 12.3802 95.6818 11.4701 96.365 10.7985C97.0482 10.1268 97.974 9.74838 98.9401 9.74577Z" fill="#D22856"/>
<path d="M43.287 19.0665C43.5381 19.0665 43.7792 19.0665 44.0202 19.0665C43.8019 18.6987 43.4897 18.3932 43.1145 18.1802C42.7393 17.9672 42.3141 17.8541 41.8809 17.852C41.4627 17.8517 41.055 17.7231 40.7147 17.4842C40.3745 17.2452 40.1185 16.9078 39.9826 16.519C39.2588 16.7243 38.5561 16.9954 37.8834 17.3287H38.0743C38.607 17.3287 39.118 17.5368 39.4947 17.9071C39.8714 18.2775 40.083 18.7798 40.083 19.3035C40.088 19.3989 40.088 19.4945 40.083 19.5899C41.109 19.2223 42.1953 19.0449 43.287 19.0665Z" fill="#D22856"/>
<path d="M60.7332 27.6472L55.5406 6.56621C55.179 4.24582 52.9291 0 46.9028 0C46.5033 0 46.1201 0.156044 45.8375 0.433804C45.555 0.711564 45.3962 1.08829 45.3962 1.4811C45.3962 1.87391 45.555 2.25063 45.8375 2.52839C46.1201 2.80615 46.5033 2.9622 46.9028 2.9622C51.7741 2.9622 52.4973 6.6452 52.5676 7.05003L57.3484 26.5018H55.2493C55.0321 24.805 54.4439 23.1744 53.525 21.7222C52.6061 20.2701 51.3783 19.0307 49.926 18.0892C49.4712 18.2774 49.0829 18.5932 48.8096 18.9971C48.5363 19.401 48.3901 19.8751 48.3893 20.3602C48.3948 20.4457 48.3948 20.5314 48.3893 20.6169C49.6107 21.4404 50.6131 22.5401 51.3122 23.8236C52.0113 25.1072 52.3867 26.537 52.4069 27.9928C52.4008 28.4894 52.3538 28.9847 52.2663 29.4739C51.9375 31.5714 50.8559 33.484 49.2173 34.8657C47.5786 36.2474 45.4911 37.007 43.3322 37.007C41.1734 37.007 39.0859 36.2474 37.4472 34.8657C35.8086 33.484 34.727 31.5714 34.3982 29.4739C34.3107 28.9847 34.2636 28.4894 34.2576 27.9928C34.2733 26.6229 34.5993 25.2737 35.2118 24.0432C34.7037 24.0081 34.2282 23.7847 33.8814 23.4181C33.5346 23.0515 33.3424 22.569 33.3436 22.0684C33.3453 21.889 33.277 21.7159 33.1528 21.5846C32.181 23.0752 31.5662 24.7633 31.3549 26.5215H29.4868C29.1663 23.6174 27.7658 20.9319 25.5542 18.9809C23.3427 17.0298 20.4759 15.9507 17.5044 15.9507C14.5329 15.9507 11.6662 17.0298 9.45463 18.9809C7.24307 20.9319 5.84259 23.6174 5.5221 26.5215H3.44302L8.23394 7.05003C8.29421 6.6452 9.0475 2.9622 13.8987 2.9622C14.2983 2.9622 14.6815 2.80615 14.964 2.52839C15.2465 2.25063 15.4053 1.87391 15.4053 1.4811C15.4053 1.08829 15.2465 0.711564 14.964 0.433804C14.6815 0.156044 14.2983 0 13.8987 0C7.87236 0 5.62254 4.24582 5.26096 6.56621L0.0582358 27.6472C-0.00612168 27.8617 -0.0173251 28.0883 0.0255611 28.308C0.0684473 28.5277 0.164178 28.7341 0.304759 28.91C0.44534 29.0859 0.62669 29.2262 0.833664 29.3191C1.04064 29.4121 1.26723 29.455 1.49451 29.4443H5.51206C5.59378 30.055 5.72135 30.659 5.89372 31.2512C5.95717 31.1429 5.99172 31.0206 5.99416 30.8957C5.99416 30.372 6.2058 29.8697 6.58252 29.4993C6.95923 29.129 7.47017 28.9209 8.00293 28.9209C8.16525 28.9248 8.32675 28.9446 8.48504 28.9802C8.44252 28.6526 8.41904 28.323 8.41473 27.9928C8.41742 27.4964 8.46109 27.0011 8.5453 26.5117C8.86708 24.4074 9.94627 22.4864 11.5867 21.0981C13.2271 19.7097 15.3198 18.9461 17.4843 18.9461C19.6489 18.9461 21.7416 19.7097 23.382 21.0981C25.0224 22.4864 26.1016 24.4074 26.4234 26.5117C26.5076 27.0011 26.5513 27.4964 26.554 27.9928C26.5638 29.6507 26.1017 31.2782 25.2199 32.6915C24.3381 34.1047 23.0717 35.2472 21.5639 35.9899C20.0561 36.7326 18.3671 37.0458 16.6877 36.8942C15.0083 36.7425 13.4056 36.132 12.0607 35.1317C11.6982 35.4412 11.235 35.6128 10.755 35.6155C10.5569 35.6181 10.3679 35.6973 10.2288 35.8359C10.0897 35.9745 10.0117 36.1613 10.0117 36.356C10.009 36.6321 9.94739 36.9046 9.83092 37.1558C11.9797 38.9066 14.6835 39.8636 17.4743 39.8613C20.4223 39.8738 23.2728 38.8236 25.4864 36.9095C27.7 34.9953 29.1232 32.35 29.4868 29.4739H31.3147C31.6456 32.3691 33.0499 35.0431 35.2593 36.9848C37.4688 38.9266 40.3285 40 43.2921 40C46.2557 40 49.1154 38.9266 51.3248 36.9848C53.5343 35.0431 54.9385 32.3691 55.2694 29.4739H59.2869C59.5191 29.4904 59.7519 29.4503 59.9647 29.3573C60.1774 29.2642 60.3635 29.121 60.5065 28.9404C60.6495 28.7598 60.7451 28.5473 60.7846 28.3217C60.8241 28.0961 60.8065 27.8645 60.7332 27.6472Z" fill="#D22856"/>
<path d="M50.9203 15.9168C50.3273 15.9181 49.7398 15.8044 49.1915 15.5822C48.6432 15.36 48.1448 15.0336 47.725 14.6218C47.3052 14.21 46.9721 13.7208 46.7448 13.1823C46.5176 12.6437 46.4006 12.0664 46.4006 11.4834C46.3979 12.6601 45.9206 13.7878 45.0733 14.6189C44.2259 15.45 43.0778 15.9168 41.8809 15.9168C43.0788 15.9194 44.2268 16.3884 45.0739 17.2211C45.9209 18.0538 46.3979 19.1825 46.4006 20.3601C46.4006 19.1817 46.8768 18.0515 47.7244 17.2182C48.572 16.385 49.7216 15.9168 50.9203 15.9168Z" fill="#283645"/>
<path d="M38.0743 19.3828C37.3417 19.3828 36.6392 19.0967 36.1212 18.5875C35.6032 18.0783 35.3122 17.3876 35.3122 16.6675C35.3122 17.3859 35.0226 18.0751 34.5068 18.584C33.9909 19.093 33.291 19.3802 32.5602 19.3828C33.2901 19.3828 33.99 19.6679 34.5062 20.1752C35.0223 20.6826 35.3122 21.3708 35.3122 22.0883C35.3149 21.3699 35.607 20.6817 36.1247 20.1746C36.6424 19.6675 37.3435 19.3828 38.0743 19.3828Z" fill="#283645"/>
<path d="M10.785 33.6406C10.056 33.6354 9.35856 33.347 8.84491 32.8384C8.33126 32.3297 8.04302 31.642 8.04303 30.9253C8.04304 31.6437 7.75342 32.3329 7.2376 32.8419C6.72178 33.3508 6.02182 33.638 5.29102 33.6406C6.02182 33.6433 6.72178 33.9305 7.2376 34.4394C7.75342 34.9484 8.04304 35.6375 8.04303 36.356C8.04302 35.6392 8.33126 34.9516 8.84491 34.4429C9.35856 33.9342 10.056 33.6459 10.785 33.6406Z" fill="#283645"/>
</symbol><symbol id="logo-footer" viewBox="0 0 145 40">
<path d="M71.005 18.5486C71.0049 18.2125 71.1358 17.8898 71.3697 17.6494C71.6037 17.409 71.922 17.2701 72.2568 17.2623H79.39C84.4469 17.2623 87.7751 19.9645 87.7751 24.3918V24.4516C87.7751 29.2977 83.7415 31.8105 78.9727 31.8105H73.5384V38.611C73.5539 38.7874 73.5328 38.9651 73.4762 39.1329C73.4196 39.3006 73.3289 39.4547 73.2097 39.5854C73.0906 39.716 72.9457 39.8204 72.7842 39.8918C72.6227 39.9631 72.4481 40 72.2717 40C72.0952 40 71.9207 39.9631 71.7592 39.8918C71.5977 39.8204 71.4527 39.716 71.3336 39.5854C71.2145 39.4547 71.1237 39.3006 71.0671 39.1329C71.0106 38.9651 70.9894 38.7874 71.005 38.611V18.5486ZM79.0721 29.5171C82.7778 29.5171 85.2119 27.5228 85.2119 24.5314V24.4716C85.2119 21.2608 82.8175 19.5956 79.2509 19.5956H73.588V29.4772L79.0721 29.5171Z" fill="#283645"/>
<path d="M92.5935 18.389C92.5779 18.2126 92.5991 18.0349 92.6556 17.8671C92.7122 17.6994 92.803 17.5452 92.9221 17.4146C93.0412 17.2839 93.1862 17.1796 93.3477 17.1082C93.5092 17.0369 93.6837 17 93.8602 17C94.0366 17 94.2112 17.0369 94.3727 17.1082C94.5342 17.1796 94.6791 17.2839 94.7982 17.4146C94.9174 17.5452 95.0081 17.6994 95.0647 17.8671C95.1213 18.0349 95.1425 18.2126 95.1269 18.389V38.611C95.1425 38.7874 95.1213 38.9651 95.0647 39.1329C95.0081 39.3006 94.9174 39.4548 94.7982 39.5854C94.6791 39.7161 94.5342 39.8204 94.3727 39.8918C94.2112 39.9631 94.0366 40 93.8602 40C93.6837 40 93.5092 39.9631 93.3477 39.8918C93.1862 39.8204 93.0412 39.7161 92.9221 39.5854C92.803 39.4548 92.7122 39.3006 92.6556 39.1329C92.5991 38.9651 92.5779 38.7874 92.5935 38.611V18.389Z" fill="#283645"/>
<path d="M101.674 18.419C101.682 18.0891 101.816 17.775 102.05 17.5426C102.283 17.3102 102.597 17.1776 102.926 17.1725H103.273C103.532 17.1778 103.784 17.2482 104.008 17.3771C104.232 17.5061 104.42 17.6894 104.555 17.9104L118.156 35.3104V18.3591C118.156 18.0312 118.286 17.7167 118.517 17.4848C118.748 17.2529 119.061 17.1227 119.388 17.1227C119.715 17.1227 120.028 17.2529 120.259 17.4848C120.49 17.7167 120.62 18.0312 120.62 18.3591V38.6508C120.625 38.8051 120.599 38.9589 120.544 39.1028C120.488 39.2467 120.403 39.3777 120.296 39.4878C120.188 39.5979 120.059 39.6848 119.916 39.7432C119.774 39.8016 119.621 39.8303 119.467 39.8275H119.338C119.074 39.8092 118.818 39.7294 118.591 39.5944C118.363 39.4593 118.17 39.2728 118.027 39.0497L104.118 21.2408V38.6508C104.116 38.9722 103.991 39.2805 103.769 39.5124C103.547 39.7442 103.246 39.882 102.926 39.8973C102.601 39.892 102.291 39.7581 102.064 39.5246C101.837 39.2911 101.711 38.9771 101.714 38.6508V18.419H101.674Z" fill="#283645"/>
<path d="M126.938 18.389C126.923 18.2126 126.944 18.0349 127.001 17.8671C127.057 17.6994 127.148 17.5452 127.267 17.4146C127.386 17.2839 127.531 17.1796 127.693 17.1082C127.854 17.0369 128.029 17 128.205 17C128.382 17 128.556 17.0369 128.718 17.1082C128.879 17.1796 129.024 17.2839 129.143 17.4146C129.262 17.5452 129.353 17.6994 129.41 17.8671C129.466 18.0349 129.487 18.2126 129.472 18.389V30.6837L142.228 17.5514C142.49 17.2797 142.845 17.1191 143.222 17.1027C143.547 17.1155 143.855 17.2528 144.082 17.4865C144.309 17.7202 144.439 18.0325 144.444 18.3591C144.437 18.529 144.396 18.6957 144.325 18.8498C144.253 19.0038 144.152 19.1421 144.026 19.2565L136.078 27.1539L144.652 37.6836C144.876 37.9441 145 38.2768 145 38.6209C144.996 38.7933 144.958 38.9633 144.889 39.121C144.819 39.2786 144.719 39.4209 144.594 39.5395C144.47 39.6582 144.323 39.7509 144.162 39.8123C144.002 39.8737 143.831 39.9026 143.659 39.8973C143.459 39.8891 143.264 39.8322 143.091 39.7314C142.918 39.6306 142.772 39.4891 142.665 39.3189L134.3 28.859L129.472 33.7051V38.591C129.472 38.7573 129.439 38.922 129.376 39.0756C129.312 39.2293 129.219 39.3689 129.102 39.4865C128.985 39.6041 128.846 39.6973 128.693 39.761C128.54 39.8246 128.376 39.8574 128.21 39.8574C128.044 39.8574 127.88 39.8246 127.727 39.761C127.574 39.6973 127.435 39.6041 127.318 39.4865C127.201 39.3689 127.108 39.2293 127.044 39.0756C126.981 38.922 126.948 38.7573 126.948 38.591V18.389H126.938Z" fill="#283645"/>
<path fill-rule="evenodd" clip-rule="evenodd" d="M53.8917 6.58616L58.9302 27.7312C59.0013 27.9491 59.0184 28.1815 58.98 28.4078C58.9417 28.6341 58.849 28.8472 58.7102 29.0284C58.5715 29.2096 58.3909 29.3532 58.1845 29.4465C57.978 29.5398 57.7522 29.58 57.5268 29.5635H53.5201C52.8298 35.3747 47.9494 39.8784 42.0315 39.8784C36.1136 39.8784 31.2332 35.3747 30.543 29.5635H28.5778C27.8869 35.442 22.9527 40 16.9685 40C10.9742 40 6.0335 35.4266 5.35571 29.5337H1.45014C1.22961 29.5445 1.00974 29.5014 0.808914 29.4082C0.608085 29.315 0.432119 29.1743 0.295711 28.9979C0.159304 28.8214 0.0664152 28.6144 0.0248022 28.3941C-0.0168108 28.1737 -0.00593994 27.9464 0.0565069 27.7312L5.10477 6.58616C5.45562 4.25872 7.63865 0 13.4861 0C13.8738 0 14.2456 0.156518 14.5197 0.435122C14.7939 0.713727 14.9479 1.0916 14.9479 1.4856C14.9479 1.87961 14.7939 2.25748 14.5197 2.53608C14.2456 2.81468 13.8738 2.9712 13.4861 2.9712C8.7789 2.9712 8.04797 6.6654 7.9895 7.07146L3.3408 26.6022H5.37467C6.12089 20.7847 11.0272 16.2918 16.9685 16.2918C22.9066 16.2918 27.8107 20.7798 28.5611 26.5926L30.5587 26.6017C31.3043 20.8518 36.1567 16.4134 42.0315 16.4134C47.9178 16.4134 52.7776 20.8691 53.5086 26.6353V26.5824H55.6459L51.007 7.07146C50.9387 6.6654 50.237 2.9712 45.5104 2.9712C45.1227 2.9712 44.7509 2.81468 44.4767 2.53608C44.2026 2.25748 44.0485 1.87961 44.0485 1.4856C44.0485 1.0916 44.2026 0.713727 44.4767 0.435122C44.7509 0.156518 45.1227 0 45.5104 0C51.3578 0 53.5408 4.25872 53.8917 6.58616ZM25.6722 29.5635C25.7448 29.1018 25.7825 28.6283 25.7825 28.1459C25.7825 27.6164 25.7371 27.0977 25.65 26.5935C24.9252 22.3982 21.3141 19.2097 16.9685 19.2097C12.6203 19.2097 9.00753 22.402 8.28571 26.601C8.19945 27.1028 8.15447 27.619 8.15447 28.1459C8.15447 28.6205 8.19096 29.0864 8.26125 29.541C8.92191 33.8136 12.5687 37.0821 16.9685 37.0821C21.3605 37.0821 25.0023 33.8251 25.6722 29.5635ZM50.6138 29.5635C50.6874 29.102 50.7256 28.6285 50.7256 28.1459C50.7256 23.2777 46.8331 19.3313 42.0315 19.3313C37.2299 19.3313 33.3374 23.2777 33.3374 28.1459C33.3374 28.6285 33.3756 29.102 33.4492 29.5635C34.118 33.7577 37.7058 36.9605 42.0315 36.9605C46.3572 36.9605 49.945 33.7577 50.6138 29.5635Z" fill="#D22856"/>
</symbol><symbol id="logo-mobile" viewBox="0 0 74 23">
<path d="M0.00496827 1.54857C0.00487772 1.21254 0.135804 0.889818 0.369742 0.649431C0.60368 0.409043 0.922049 0.27008 1.25676 0.262266H8.39001C13.4469 0.262266 16.7751 2.9645 16.7751 7.39179V7.45162C16.7751 12.2977 12.7415 14.8105 7.97274 14.8105H2.53836V21.611C2.55394 21.7874 2.53277 21.9651 2.47619 22.1329C2.41961 22.3006 2.32887 22.4547 2.20973 22.5854C2.09058 22.716 1.94565 22.8204 1.78416 22.8918C1.62266 22.9631 1.44812 23 1.27166 23C1.0952 23 0.920671 22.9631 0.759173 22.8918C0.597674 22.8204 0.452744 22.716 0.333602 22.5854C0.21446 22.4547 0.123708 22.3006 0.0671295 22.1329C0.0105515 21.9651 -0.0106138 21.7874 0.00496827 21.611V1.54857ZM8.07209 12.5171C11.7778 12.5171 14.2119 10.5228 14.2119 7.53139V7.47156C14.2119 4.26078 11.8175 2.59556 8.25092 2.59556H2.58804V12.4772L8.07209 12.5171Z"/>
<path d="M21.5935 1.38904C21.5779 1.21262 21.5991 1.03487 21.6556 0.867114C21.7122 0.699353 21.803 0.545245 21.9221 0.414596C22.0412 0.283947 22.1862 0.179616 22.3477 0.108238C22.5092 0.0368607 22.6837 0 22.8602 0C23.0366 0 23.2112 0.0368607 23.3727 0.108238C23.5342 0.179616 23.6791 0.283947 23.7982 0.414596C23.9174 0.545245 24.0081 0.699353 24.0647 0.867114C24.1213 1.03487 24.1425 1.21262 24.1269 1.38904V21.611C24.1425 21.7874 24.1213 21.9651 24.0647 22.1329C24.0081 22.3006 23.9174 22.4548 23.7982 22.5854C23.6791 22.7161 23.5342 22.8204 23.3727 22.8918C23.2112 22.9631 23.0366 23 22.8602 23C22.6837 23 22.5092 22.9631 22.3477 22.8918C22.1862 22.8204 22.0412 22.7161 21.9221 22.5854C21.803 22.4548 21.7122 22.3006 21.6556 22.1329C21.5991 21.9651 21.5779 21.7874 21.5935 21.611V1.38904Z"/>
<path d="M30.674 1.41895C30.6816 1.08908 30.8163 0.775007 31.0497 0.542621C31.2831 0.310235 31.597 0.177597 31.9258 0.172531H32.2735C32.5316 0.177833 32.7843 0.248188 33.0082 0.377127C33.2322 0.506065 33.4202 0.689448 33.5551 0.910412L47.1559 18.3104V1.35912C47.1559 1.0312 47.2857 0.7167 47.5168 0.484821C47.7478 0.252942 48.0611 0.122673 48.3879 0.122673C48.7146 0.122673 49.0279 0.252942 49.259 0.484821C49.49 0.7167 49.6198 1.0312 49.6198 1.35912V21.6508C49.6252 21.8051 49.5993 21.9589 49.5435 22.1028C49.4878 22.2467 49.4034 22.3777 49.2956 22.4878C49.1877 22.5979 49.0587 22.6848 48.9163 22.7432C48.7739 22.8016 48.6211 22.8303 48.4673 22.8275H48.3382C48.0744 22.8092 47.8184 22.7294 47.5908 22.5944C47.3631 22.4593 47.17 22.2728 47.0268 22.0497L33.1179 4.24085V21.6508C33.1158 21.9722 32.991 22.2805 32.7692 22.5124C32.5474 22.7442 32.2456 22.882 31.9258 22.8973C31.6008 22.892 31.291 22.7581 31.064 22.5246C30.8369 22.2911 30.711 21.9771 30.7137 21.6508V1.41895H30.674Z"/>
<path d="M55.9384 1.38904C55.9228 1.21262 55.944 1.03487 56.0005 0.867114C56.0571 0.699353 56.1479 0.545245 56.267 0.414596C56.3862 0.283947 56.5311 0.179616 56.6926 0.108238C56.8541 0.0368607 57.0286 0 57.2051 0C57.3815 0 57.5561 0.0368607 57.7176 0.108238C57.8791 0.179616 58.024 0.283947 58.1431 0.414596C58.2623 0.545245 58.353 0.699353 58.4096 0.867114C58.4662 1.03487 58.4874 1.21262 58.4718 1.38904V13.6837L71.2282 0.551443C71.4899 0.279712 71.8455 0.119105 72.2216 0.10273C72.5468 0.115453 72.8548 0.252812 73.0821 0.486531C73.3094 0.72025 73.4388 1.03254 73.4436 1.35912C73.4366 1.52896 73.3961 1.69572 73.3245 1.84975C73.2529 2.00379 73.1516 2.14205 73.0264 2.25655L65.0785 10.1539L73.6523 20.6836C73.8764 20.9441 73.9998 21.2768 74 21.6209C73.9961 21.7933 73.9583 21.9633 73.8887 22.121C73.8191 22.2786 73.719 22.4209 73.5943 22.5395C73.4696 22.6582 73.3228 22.7509 73.1622 22.8123C73.0016 22.8737 72.8305 22.9026 72.6588 22.8973C72.4588 22.8891 72.2639 22.8322 72.0908 22.7314C71.9177 22.6306 71.7716 22.4891 71.6653 22.3189L63.3001 11.859L58.4718 16.7051V21.591C58.4718 21.7573 58.4391 21.922 58.3757 22.0756C58.3123 22.2293 58.2194 22.3689 58.1022 22.4865C57.9851 22.6041 57.846 22.6973 57.6929 22.761C57.5398 22.8246 57.3757 22.8574 57.21 22.8574C57.0443 22.8574 56.8803 22.8246 56.7272 22.761C56.5741 22.6973 56.435 22.6041 56.3179 22.4865C56.2007 22.3689 56.1078 22.2293 56.0443 22.0756C55.9809 21.922 55.9483 21.7573 55.9483 21.591V1.38904H55.9384Z"/>
</symbol><symbol id="logo-tablet" viewBox="0 0 145 40"><path fill="#fff" fill-rule="evenodd" d="M53.892 6.586l5.038 21.145a1.418 1.418 0 0 1-.22 1.297 1.356 1.356 0 0 1-1.183.535H53.52c-.69 5.812-5.57 10.315-11.489 10.315-5.917 0-10.798-4.503-11.488-10.314h-1.965C27.887 35.442 22.953 40 16.968 40c-5.994 0-10.934-4.573-11.612-10.466H1.45a1.364 1.364 0 0 1-1.154-.536 1.418 1.418 0 0 1-.24-1.267l5.05-21.145C5.455 4.26 7.639 0 13.486 0c.388 0 .76.157 1.034.435a1.5 1.5 0 0 1 0 2.101 1.45 1.45 0 0 1-1.034.435c-4.707 0-5.438 3.694-5.497 4.1L3.341 26.602h2.034c.746-5.817 5.652-10.31 11.593-10.31 5.939 0 10.843 4.488 11.593 10.3l1.998.01c.745-5.75 5.598-10.189 11.473-10.189 5.886 0 10.746 4.456 11.477 10.222v-.053h2.137l-4.639-19.51c-.068-.407-.77-4.1-5.497-4.1a1.45 1.45 0 0 1-1.033-.436 1.498 1.498 0 0 1-.428-1.05c0-.394.154-.772.428-1.05A1.45 1.45 0 0 1 45.51 0c5.848 0 8.03 4.259 8.382 6.586zm-28.22 22.977a9.122 9.122 0 0 0-.022-2.97c-.725-4.195-4.336-7.383-8.681-7.383-4.349 0-7.961 3.192-8.683 7.391a9.114 9.114 0 0 0-.025 2.94c.66 4.273 4.308 7.541 8.707 7.541 4.392 0 8.034-3.257 8.704-7.518zm24.942 0c.073-.461.112-.934.112-1.417 0-4.868-3.893-8.815-8.694-8.815-4.802 0-8.695 3.947-8.695 8.815 0 .482.039.956.112 1.418.669 4.194 4.257 7.397 8.583 7.397 4.325 0 7.913-3.203 8.582-7.397z" clip-rule="evenodd"/><path fill="#fff" d="M71.005 18.549a1.284 1.284 0 0 1 1.252-1.287h7.133c5.057 0 8.385 2.703 8.385 7.13v.06c0 4.846-4.034 7.358-8.802 7.358h-5.435v6.801a1.282 1.282 0 0 1-.754 1.28 1.27 1.27 0 0 1-1.717-.758 1.282 1.282 0 0 1-.062-.522V18.549zm8.067 10.968c3.706 0 6.14-1.994 6.14-4.986v-.06c0-3.21-2.395-4.875-5.961-4.875h-5.663v9.881l5.484.04zm13.522-11.128a1.282 1.282 0 0 1 .754-1.28 1.269 1.269 0 0 1 1.717.758c.056.168.077.346.062.522v20.222a1.282 1.282 0 0 1-.754 1.28 1.27 1.27 0 0 1-1.717-.758 1.282 1.282 0 0 1-.063-.522V18.389zm9.08.03a1.278 1.278 0 0 1 1.252-1.247h.347a1.535 1.535 0 0 1 1.282.738l13.601 17.4V18.36c0-.329.13-.643.361-.875a1.229 1.229 0 0 1 1.742 0c.231.232.361.546.361.874v20.292c.005.154-.021.308-.076.452a1.13 1.13 0 0 1-1.077.725h-.129a1.69 1.69 0 0 1-1.311-.778l-13.909-17.81v17.41a1.257 1.257 0 0 1-1.192 1.247 1.23 1.23 0 0 1-1.212-1.246V18.419h-.04zm25.264-.03a1.284 1.284 0 0 1 .755-1.28 1.267 1.267 0 0 1 1.45.306 1.287 1.287 0 0 1 .329.974v12.295l12.756-13.133c.262-.271.617-.432.994-.448.325.012.633.15.86.383.227.234.357.546.362.873a1.28 1.28 0 0 1-.418.897l-7.948 7.898 8.574 10.53c.224.26.348.593.348.937a1.309 1.309 0 0 1-1.341 1.276 1.228 1.228 0 0 1-.994-.578l-8.365-10.46-4.828 4.846v4.886a1.278 1.278 0 0 1-.37.895 1.26 1.26 0 0 1-2.154-.895V18.389h-.01z"/></symbol><symbol id="mail-icon" viewBox="0 0 18 13">
<path d="M14.9101 1.68071C16.1101 0.752143 15.8201 0 14.2601 0H3.73007C2.17007 0 1.88007 0.761428 3.07007 1.68071L6.82007 4.57786C7.44102 5.02891 8.2067 5.27397 8.99507 5.27397C9.78344 5.27397 10.5491 5.02891 11.1701 4.57786L14.9101 1.68071Z" fill="#D22856"/>
<path d="M11.9101 6.5L9.70007 8.24571C9.61906 8.29331 9.53164 8.33078 9.44007 8.35714L9.34007 8.40357C9.23142 8.44582 9.11701 8.47395 9.00007 8.48714L8.67007 8.43143L8.55007 8.35714C8.46475 8.3229 8.38417 8.27925 8.31007 8.22714L6.08007 6.5L2.18007 3.52857C1.00007 2.6 7.0672e-05 3.02714 7.0672e-05 4.47571V10.335C-0.002565 10.6825 0.0685454 11.0272 0.209341 11.3492C0.350138 11.6712 0.557862 11.9643 0.820654 12.2118C1.08345 12.4592 1.39616 12.6562 1.74093 12.7915C2.08571 12.9267 2.4558 12.9976 2.83007 13H15.1501C15.526 13 15.8983 12.9309 16.2454 12.7968C16.5924 12.6626 16.9075 12.466 17.1724 12.2183C17.4373 11.9706 17.6469 11.6767 17.7889 11.3534C17.9309 11.0302 18.0027 10.6841 18.0001 10.335V4.47571C18.0001 3.02714 17.0001 2.61857 15.8201 3.54714L11.9101 6.5Z" fill="#D22856"/>
</symbol><symbol id="microsoft-logo" viewBox="0 0 44 41"><path fill="#F05423" d="M20.908 19.524H0V0h20.908v19.524z"/><path fill="#84C441" d="M44 19.524H23.092V0H44v19.524z"/><path fill="#2DABE2" d="M20.908 41H0V21.476h20.908V41z"/><path fill="#F9BC15" d="M44 41H23.092V21.476H44V41z"/></symbol><symbol id="no" viewBox="0 0 27 27"><path fill="#F25B26" d="M15.644 13.507l10.91-10.92a1.503 1.503 0 0 0 0-2.14 1.524 1.524 0 0 0-2.14 0l-10.909 10.92L2.586.447a1.504 1.504 0 0 0-2.14 0 1.524 1.524 0 0 0 0 2.14l10.92 10.92-10.92 10.91a1.503 1.503 0 0 0 0 2.139 1.514 1.514 0 0 0 2.14 0l10.919-10.91 10.909 10.91a1.514 1.514 0 0 0 2.14-2.14l-10.91-10.91z"/></symbol><symbol id="phone-icon" viewBox="0 0 20 19">
<path d="M10.0408 0C6.46361 0 2.90684 0.608386 1.58197 1.8155C0.624506 2.9164 0.0701613 4.28212 0.00231714 5.70724C-0.000772379 5.76193 -0.000772379 5.81673 0.00231714 5.87141C0.00231714 6.08143 0.0903626 6.28284 0.247084 6.43135C0.403806 6.57985 0.616367 6.66328 0.838005 6.66328L4.07884 6.4122H4.16037C4.26878 6.41094 4.37587 6.38946 4.47551 6.34898C4.57516 6.3085 4.66541 6.24982 4.74112 6.17628C4.81683 6.10275 4.87651 6.0158 4.91676 5.92041C4.95701 5.82502 4.97703 5.72305 4.97568 5.62033V4.04625C4.97433 3.93131 4.99706 3.81725 5.04255 3.71069C5.08804 3.60412 5.15539 3.50717 5.2407 3.42544C5.326 3.34371 5.42757 3.27882 5.53952 3.23454C5.65148 3.19026 5.77159 3.16746 5.8929 3.16747H14.046C14.2919 3.16747 14.5278 3.26006 14.7017 3.42486C14.8757 3.58966 14.9734 3.81318 14.9734 4.04625V5.60102C14.9733 5.80773 15.0585 6.00627 15.2109 6.15423C15.3632 6.30219 15.5706 6.38784 15.7887 6.39288H15.8804L19.162 6.64396C19.2717 6.64396 19.3804 6.62348 19.4818 6.58369C19.5832 6.54389 19.6753 6.48556 19.7529 6.41203C19.8305 6.3385 19.8921 6.2512 19.9341 6.15513C19.9761 6.05906 19.9977 5.95609 19.9977 5.8521C20.0008 5.79741 20.0008 5.74261 19.9977 5.68793C19.9242 4.27608 19.378 2.92311 18.4384 1.82516C17.1951 0.608386 13.6179 0 10.0408 0ZM10.0408 10.3039C9.7102 10.3039 9.38705 10.3968 9.1122 10.5708C8.83734 10.7449 8.62312 10.9922 8.49662 11.2816C8.37011 11.571 8.33701 11.8894 8.4015 12.1966C8.46599 12.5039 8.62518 12.7861 8.85892 13.0075C9.09267 13.229 9.39048 13.3799 9.7147 13.441C10.0389 13.5021 10.375 13.4707 10.6804 13.3509C10.9858 13.231 11.2468 13.028 11.4305 12.7676C11.6141 12.5071 11.7121 12.2009 11.7121 11.8877C11.7135 11.6793 11.6712 11.4728 11.5877 11.2801C11.5042 11.0874 11.3811 10.9123 11.2256 10.7649C11.0702 10.6176 10.8854 10.501 10.682 10.4219C10.4786 10.3427 10.2606 10.3027 10.0408 10.3039ZM8.78723 6.75985V5.79416C8.78723 5.53804 8.67986 5.29241 8.48874 5.11131C8.29761 4.9302 8.03839 4.82846 7.7681 4.82846C7.49781 4.82846 7.23859 4.9302 7.04747 5.11131C6.85634 5.29241 6.74897 5.53804 6.74897 5.79416V6.75985L1.02145 12.4478C0.818967 12.6306 0.658375 12.8511 0.54967 13.0953C0.440965 13.3395 0.386473 13.6023 0.389587 13.8673V15.4511C0.389579 15.872 0.565344 16.2758 0.878498 16.5744C1.19165 16.8729 1.61675 17.0419 2.06096 17.0445H2.47881V18.0102C2.47881 18.1402 2.50583 18.2689 2.55832 18.389C2.61082 18.5091 2.68777 18.6182 2.78477 18.7101C2.88177 18.802 2.99692 18.8749 3.12366 18.9247C3.2504 18.9744 3.38624 19 3.52342 19C3.6606 19 3.79643 18.9744 3.92317 18.9247C4.04991 18.8749 4.16507 18.802 4.26207 18.7101C4.35907 18.6182 4.43601 18.5091 4.48851 18.389C4.54101 18.2689 4.56803 18.1402 4.56803 18.0102V17.0445H15.4727V18.0102C15.4727 18.2727 15.5828 18.5245 15.7787 18.7101C15.9746 18.8957 16.2403 19 16.5173 19C16.7944 19 17.0601 18.8957 17.256 18.7101C17.4519 18.5245 17.562 18.2727 17.562 18.0102V17.0445H17.9798C18.2001 17.0445 18.4183 17.0032 18.6218 16.923C18.8252 16.8428 19.0099 16.7253 19.1653 16.5772C19.3206 16.4291 19.4435 16.2534 19.5269 16.0601C19.6103 15.8669 19.6525 15.6599 19.6512 15.4511V13.8673C19.6556 13.603 19.6027 13.3406 19.4958 13.0964C19.3888 12.8523 19.2301 12.6315 19.0295 12.4478L13.3835 6.75985V5.79416C13.3835 5.53163 13.2735 5.27987 13.0776 5.09424C12.8817 4.90861 12.616 4.80432 12.3389 4.80432C12.0619 4.80432 11.7962 4.90861 11.6003 5.09424C11.4044 5.27987 11.2943 5.53163 11.2943 5.79416V6.75985H8.78723ZM10.0408 8.69123C10.7019 8.69123 11.3482 8.877 11.8979 9.22505C12.4476 9.57309 12.8761 10.0678 13.1291 10.6466C13.3821 11.2253 13.4483 11.8622 13.3193 12.4766C13.1903 13.0911 12.8719 13.6555 12.4044 14.0984C11.937 14.5414 11.3413 14.8431 10.6929 14.9653C10.0445 15.0875 9.37236 15.0248 8.76155 14.7851C8.15074 14.5453 7.62867 14.1393 7.26137 13.6185C6.89406 13.0976 6.69801 12.4852 6.69801 11.8587C6.69801 11.0186 7.05019 10.213 7.67708 9.61896C8.30397 9.02495 9.15421 8.69123 10.0408 8.69123Z" fill="#D22856"/>
</symbol><symbol id="quotes-desktop 2" viewBox="0 0 79 63"><path fill="#EFEFEF" d="M35.147 6.973L30.839 0C28.389 1.481 0 12.059 0 39.13 0 46.27.341 63 18.98 63c11.236 0 13.998-10.153 13.998-13.422 0-21.727-21.47-13.994-21.47-13.994 0-17.807 19.883-26.518 23.639-28.611zM79 6.973L74.732 0c-2.43 1.481-30.849 12.059-30.849 39.13 0 7.14.342 23.87 18.99 23.87C74.1 63 76.86 52.847 76.86 49.578c0-21.727-21.47-13.994-21.47-13.994C55.391 17.777 75.315 9.066 79 6.973z"/></symbol><symbol id="quotes-desktop" viewBox="0 0 79 63"><path fill="#EFEFEF" d="M35.147 6.973L30.839 0C28.389 1.481 0 12.059 0 39.13 0 46.27.341 63 18.98 63c11.236 0 13.998-10.153 13.998-13.422 0-21.727-21.47-13.994-21.47-13.994 0-17.807 19.883-26.518 23.639-28.611zm43.853 0L74.732 0c-2.43 1.481-30.849 12.059-30.849 39.13 0 7.14.342 23.87 18.99 23.87C74.1 63 76.86 52.847 76.86 49.578c0-21.727-21.47-13.994-21.47-13.994C55.391 17.777 75.315 9.066 79 6.973z"/></symbol><symbol id="right-arrow" viewBox="0 0 22 41">
<path opacity="0.3" d="M19.9587 20.4965L0.251671 39.5856C0.171938 39.6621 0.108643 39.7532 0.065443 39.8535C0.0222435 39.9539 0 40.0616 0 40.1704C0 40.2791 0.0222435 40.3868 0.065443 40.4872C0.108643 40.5876 0.171938 40.6786 0.251671 40.7551C0.33144 40.8327 0.426224 40.8943 0.530588 40.9363C0.634953 40.9784 0.746847 41 0.859852 41C0.972857 41 1.08475 40.9784 1.18911 40.9363C1.29348 40.8943 1.38826 40.8327 1.46803 40.7551L21.7475 21.0912C21.8275 21.0138 21.891 20.9219 21.9344 20.8207C21.9777 20.7195 22 20.611 22 20.5015C22 20.3919 21.9777 20.2834 21.9344 20.1822C21.891 20.081 21.8275 19.9891 21.7475 19.9117L1.46803 0.237877C1.30326 0.0842934 1.08329 -0.00102615 0.85474 7.62939e-06C0.6861 0.00154114 0.52166 0.0511971 0.381939 0.14278C0.24222 0.234364 0.133411 0.363811 0.069088 0.51498C0.00476646 0.666149 -0.0122204 0.83234 0.0202503 0.992809C0.052721 1.15328 0.133209 1.30093 0.251671 1.41732L19.9587 20.4965Z" fill="#283645"/>
</symbol><symbol id="tick" viewBox="0 0 22 16">
<path d="M21.7001 0.284331C21.5105 0.102082 21.2557 0 20.9903 0C20.7249 0 20.47 0.102082 20.2805 0.284331L6.70324 13.6028L1.73472 8.72901C1.64045 8.63578 1.52831 8.56178 1.40474 8.51128C1.28118 8.46079 1.14865 8.43479 1.01479 8.43479C0.88093 8.43479 0.748397 8.46079 0.624833 8.51128C0.50127 8.56178 0.389122 8.63578 0.294859 8.72901C0.106004 8.91537 0 9.16747 0 9.43024C0 9.69302 0.106004 9.94512 0.294859 10.1315L5.98331 15.7115C6.07806 15.8037 6.19042 15.8767 6.31396 15.9262C6.4375 15.9756 6.56979 16.0007 6.70324 16C6.96925 15.9989 7.22416 15.8953 7.41303 15.7115L21.7001 1.69675C21.7951 1.60428 21.8705 1.49427 21.922 1.37306C21.9735 1.25186 22 1.12185 22 0.990541C22 0.859234 21.9735 0.729226 21.922 0.608017C21.8705 0.486809 21.7951 0.376798 21.7001 0.284331Z" fill="#D22856"/>
</symbol><symbol id="timer-tablet" viewBox="0 0 238 276"><path fill="#DEDEDE" d="M211.314 81.628l4.273-4.287c6.165-6.175 7.291-15.148 2.499-19.94-4.792-4.79-13.752-3.678-19.91 2.496l-4.305 4.311a118.265 118.265 0 0 0-59.684-25.578v-7.67h6.118c8.714 0 15.846-6.966 15.846-15.476 0-8.51-7.132-15.484-15.846-15.484H97.721c-8.714 0-15.846 6.966-15.846 15.484S89.008 30.96 97.722 30.96h6.118v7.67a118.935 118.935 0 0 0-69.052 34A119.238 119.238 0 0 0 .946 141.836a119.313 119.313 0 0 0 15.518 75.474 119.047 119.047 0 0 0 58.389 50.187 118.839 118.839 0 0 0 76.847 3.916 118.988 118.988 0 0 0 63.175-43.991 119.28 119.28 0 0 0 23.089-73.506 119.27 119.27 0 0 0-26.65-72.287zm-92.301 163.319a87.901 87.901 0 0 1-48.884-14.85 88.092 88.092 0 0 1-32.407-39.546 88.23 88.23 0 0 1-5.006-50.911A88.153 88.153 0 0 1 56.8 94.524a87.95 87.95 0 0 1 45.053-24.113 87.87 87.87 0 0 1 50.838 5.017 88.012 88.012 0 0 1 39.486 32.457 88.197 88.197 0 0 1 14.825 48.956 88.177 88.177 0 0 1-25.774 62.301 87.923 87.923 0 0 1-62.214 25.805z"/><circle cx="119" cy="157" r="93" stroke="#D22856" stroke-width="16"/><path fill="#D22856" d="M115.906 191H68v-10.078l17.203-17.391c5.094-5.219 8.422-8.828 9.984-10.828 1.563-2.031 2.688-3.906 3.376-5.625a14.262 14.262 0 0 0 1.03-5.344c0-2.75-.765-4.796-2.296-6.14-1.5-1.344-3.516-2.016-6.047-2.016-2.656 0-5.234.61-7.734 1.828-2.5 1.219-5.11 2.953-7.829 5.203l-7.874-9.328c3.374-2.875 6.171-4.906 8.39-6.093 2.219-1.188 4.64-2.094 7.266-2.719 2.625-.657 5.562-.985 8.812-.985 4.281 0 8.063.782 11.344 2.344 3.281 1.563 5.828 3.75 7.641 6.563 1.812 2.812 2.718 6.031 2.718 9.656 0 3.156-.562 6.125-1.687 8.906-1.094 2.75-2.813 5.578-5.156 8.485-2.313 2.906-6.407 7.046-12.282 12.421l-8.812 8.297v.656h29.859V191zm56.391-14.203h-8.25V191h-14.156v-14.203h-29.25v-10.078l30.047-44.25h13.359v43.078h8.25v11.25zm-22.406-11.25v-11.625c0-1.938.078-4.75.234-8.438.156-3.687.281-5.828.375-6.422h-.375a52.198 52.198 0 0 1-4.172 7.5l-12.562 18.985h16.5z"/></symbol><symbol id="timer" viewBox="0 0 238 276">
<path d="M211.314 81.6277L215.587 77.3408C221.752 71.1663 222.878 62.1925 218.086 57.4017C213.294 52.6109 204.334 53.7227 198.176 59.8971L193.871 64.208C176.746 50.2779 156.074 41.4187 134.187 38.6304V30.9603H140.305C149.019 30.9603 156.151 23.994 156.151 15.4842C156.151 6.97427 149.019 0 140.305 0H97.7208C89.0075 0 81.8755 6.96627 81.8755 15.4842C81.8755 24.002 89.0075 30.9603 97.7208 30.9603H103.839V38.6304C77.6967 41.9933 53.4093 53.9522 34.7872 72.6308C16.1652 91.3093 4.26218 115.651 0.945904 141.835C-2.37038 168.02 3.08771 194.566 16.4638 217.309C29.8399 240.052 50.377 257.704 74.8528 267.496C99.3286 277.288 126.358 278.665 151.7 271.412C177.042 264.16 199.263 248.687 214.875 227.421C230.488 206.156 238.609 180.302 237.964 153.915C237.32 127.529 227.946 102.103 211.314 81.6277ZM119.013 244.947C101.61 244.947 84.5984 239.779 70.1286 230.097C55.6589 220.414 44.3813 206.652 37.7219 190.551C31.0625 174.45 29.3205 156.733 32.7162 139.64C36.1119 122.547 44.4927 106.847 56.7989 94.5241C69.105 82.2015 84.7837 73.81 101.852 70.411C118.921 67.012 136.613 68.7581 152.69 75.4285C168.768 82.0989 182.509 93.3939 192.176 107.885C201.844 122.377 207.003 139.413 207.001 156.841C206.999 180.209 197.728 202.619 181.227 219.142C164.726 235.665 142.348 244.947 119.013 244.947Z" fill="#DEDEDE"/>
<circle cx="119" cy="157" r="93" stroke="#D22856" stroke-width="16"/>
<path d="M115.906 191H68V180.922L85.2031 163.531C90.2969 158.312 93.625 154.703 95.1875 152.703C96.75 150.672 97.875 148.797 98.5625 147.078C99.25 145.359 99.5938 143.578 99.5938 141.734C99.5938 138.984 98.8281 136.938 97.2969 135.594C95.7969 134.25 93.7812 133.578 91.25 133.578C88.5938 133.578 86.0156 134.188 83.5156 135.406C81.0156 136.625 78.4062 138.359 75.6875 140.609L67.8125 131.281C71.1875 128.406 73.9844 126.375 76.2031 125.188C78.4219 124 80.8438 123.094 83.4688 122.469C86.0938 121.812 89.0312 121.484 92.2812 121.484C96.5625 121.484 100.344 122.266 103.625 123.828C106.906 125.391 109.453 127.578 111.266 130.391C113.078 133.203 113.984 136.422 113.984 140.047C113.984 143.203 113.422 146.172 112.297 148.953C111.203 151.703 109.484 154.531 107.141 157.438C104.828 160.344 100.734 164.484 94.8594 169.859L86.0469 178.156V178.812H115.906V191ZM172.297 176.797H164.047V191H149.891V176.797H120.641V166.719L150.688 122.469H164.047V165.547H172.297V176.797ZM149.891 165.547V153.922C149.891 151.984 149.969 149.172 150.125 145.484C150.281 141.797 150.406 139.656 150.5 139.062H150.125C148.969 141.625 147.578 144.125 145.953 146.562L133.391 165.547H149.891Z" fill="#D22856"/>
</symbol><symbol id="twitter" viewBox="0 0 18 14">
<path d="M11.5641 0.168904C12.2458 -0.0461515 12.9837 -0.0560928 13.6719 0.140507C14.3602 0.337107 14.9633 0.730138 15.3947 1.26319C16.1053 1.05385 16.8055 0.815959 17.5263 0.606617C17.5164 0.925848 17.4299 1.23907 17.2732 1.52372C17.1165 1.80837 16.8935 2.05738 16.6201 2.2528C16.8726 2.27877 17.1281 2.25112 17.3673 2.17197C17.6064 2.09281 17.8228 1.96424 18 1.79606C17.901 2.20987 17.6999 2.59695 17.4123 2.92708C17.1247 3.2572 16.7585 3.52144 16.3421 3.69916C16.095 9.96988 12.9748 14.1662 5.65332 13.9949H5.14874C4.70595 13.9949 0.731121 13.5667 0 12.2441C1.75201 12.4899 3.53888 12.0976 4.98398 11.1498C3.95423 10.8643 2.13158 10.7026 1.82265 8.40934C2.2108 8.54337 2.6321 8.57306 3.03776 8.49498C1.76087 7.70519 0.339817 7.0391 0.422197 4.99327C0.819634 5.29882 1.3269 5.45507 1.84325 5.43098C1.10183 5.20261 -0.24714 2.30989 0.895881 0.825474C2.82151 2.54778 4.86041 4.17493 8.48512 4.3367C8.71167 2.20522 9.68993 0.777896 11.5641 0.168904Z" fill="#D22856"/>
</symbol><symbol id="yes 2" viewBox="0 0 31 21"><path fill="#3DC644" d="M30.556.43a1.54 1.54 0 0 0-.499-.318 1.607 1.607 0 0 0-1.179 0 1.54 1.54 0 0 0-.499.318L10.374 17.496 2.578 10.11a1.582 1.582 0 0 0-1.072-.39 1.576 1.576 0 0 0-1.057.425c-.28.266-.442.625-.449 1.001-.007.377.14.74.411 1.016l8.88 8.412c.142.135.31.243.497.316a1.596 1.596 0 0 0 1.67-.316L30.556 2.482c.284-.274.444-.642.444-1.026S30.84.703 30.556.43z"/></symbol><symbol id="yes" viewBox="0 0 31 21"><path fill="#3DC644" d="M30.556.43a1.54 1.54 0 0 0-.499-.318 1.607 1.607 0 0 0-1.179 0 1.54 1.54 0 0 0-.499.318L10.374 17.496 2.578 10.11a1.582 1.582 0 0 0-1.072-.39 1.576 1.576 0 0 0-1.057.425A1.42 1.42 0 0 0 0 11.146c-.007.377.14.74.411 1.016l8.88 8.412c.142.135.31.243.497.316a1.596 1.596 0 0 0 1.67-.316L30.556 2.482c.284-.274.444-.642.444-1.026S30.84.703 30.556.43z"/></symbol><symbol id="youtube" viewBox="0 0 15 13">
<path d="M1.83356 12.8089C1.64633 12.9278 1.42471 12.9941 1.19626 12.9996C0.967817 13.0051 0.74263 12.9495 0.548717 12.8398C0.354804 12.7301 0.200724 12.571 0.105646 12.3824C0.010569 12.1938 -0.0213097 11.984 0.0139762 11.779V1.22097C-0.0213097 1.01605 0.010569 0.806234 0.105646 0.617628C0.200724 0.429021 0.354804 0.269949 0.548717 0.1602C0.74263 0.0504516 0.967817 -0.00512927 1.19626 0.000372265C1.42471 0.0058738 1.64633 0.0722149 1.83356 0.191142L14.2333 5.69284C15.2556 6.13817 15.2556 6.86183 14.2333 7.30716L1.83356 12.8089Z" fill="#D22856"/>
</symbol></svg>